<svg width="49" height="15" viewBox="0 0 49 15" fill="none" xmlns="http://www.w3.org/2000/svg">
<path d="M0.114393 2.2H2.38239V10.152H7.29639V12H0.114393V2.2ZM11.3789 12.112C10.5856 12.112 9.87159 11.9487 9.23692 11.622C8.61159 11.286 8.12159 10.824 7.76692 10.236C7.41226 9.648 7.23492 8.98067 7.23492 8.234C7.23492 7.48733 7.41226 6.82 7.76692 6.232C8.12159 5.644 8.61159 5.18667 9.23692 4.86C9.87159 4.524 10.5856 4.356 11.3789 4.356C12.1723 4.356 12.8816 4.524 13.5069 4.86C14.1323 5.18667 14.6223 5.644 14.9769 6.232C15.3316 6.82 15.5089 7.48733 15.5089 8.234C15.5089 8.98067 15.3316 9.648 14.9769 10.236C14.6223 10.824 14.1323 11.286 13.5069 11.622C12.8816 11.9487 12.1723 12.112 11.3789 12.112ZM11.3789 10.32C11.9389 10.32 12.3963 10.1333 12.7509 9.76C13.1149 9.37733 13.2969 8.86867 13.2969 8.234C13.2969 7.59933 13.1149 7.09533 12.7509 6.722C12.3963 6.33933 11.9389 6.148 11.3789 6.148C10.8189 6.148 10.3569 6.33933 9.99292 6.722C9.62892 7.09533 9.44692 7.59933 9.44692 8.234C9.44692 8.86867 9.62892 9.37733 9.99292 9.76C10.3569 10.1333 10.8189 10.32 11.3789 10.32ZM24.1788 4.468V10.74C24.1788 12.1213 23.8194 13.148 23.1008 13.82C22.3821 14.492 21.3321 14.828 19.9508 14.828C19.2228 14.828 18.5321 14.7393 17.8788 14.562C17.2254 14.3847 16.6841 14.128 16.2548 13.792L17.1228 12.224C17.4401 12.4853 17.8414 12.6907 18.3268 12.84C18.8121 12.9987 19.2974 13.078 19.7828 13.078C20.5388 13.078 21.0941 12.9053 21.4488 12.56C21.8128 12.224 21.9948 11.7107 21.9948 11.02V10.698C21.4254 11.3233 20.6321 11.636 19.6148 11.636C18.9241 11.636 18.2894 11.4867 17.7108 11.188C17.1414 10.88 16.6888 10.4507 16.3528 9.9C16.0168 9.34933 15.8488 8.71467 15.8488 7.996C15.8488 7.27733 16.0168 6.64267 16.3528 6.092C16.6888 5.54133 17.1414 5.11667 17.7108 4.818C18.2894 4.51 18.9241 4.356 19.6148 4.356C20.7068 4.356 21.5374 4.71533 22.1068 5.434V4.468H24.1788ZM20.0488 9.844C20.6274 9.844 21.0988 9.676 21.4628 9.34C21.8361 8.99467 22.0228 8.54667 22.0228 7.996C22.0228 7.44533 21.8361 7.002 21.4628 6.666C21.0988 6.32067 20.6274 6.148 20.0488 6.148C19.4701 6.148 18.9941 6.32067 18.6208 6.666C18.2474 7.002 18.0608 7.44533 18.0608 7.996C18.0608 8.54667 18.2474 8.99467 18.6208 9.34C18.9941 9.676 19.4701 9.844 20.0488 9.844ZM25.6515 4.468H27.8355V12H25.6515V4.468ZM26.7435 3.418C26.3422 3.418 26.0155 3.30133 25.7635 3.068C25.5115 2.83467 25.3855 2.54533 25.3855 2.2C25.3855 1.85467 25.5115 1.56533 25.7635 1.332C26.0155 1.09867 26.3422 0.981999 26.7435 0.981999C27.1448 0.981999 27.4715 1.094 27.7235 1.318C27.9755 1.542 28.1015 1.822 28.1015 2.158C28.1015 2.522 27.9755 2.82533 27.7235 3.068C27.4715 3.30133 27.1448 3.418 26.7435 3.418ZM33.8804 4.356C34.8138 4.356 35.5651 4.636 36.1344 5.196C36.7131 5.756 37.0024 6.58667 37.0024 7.688V12H34.8184V8.024C34.8184 7.42667 34.6878 6.98333 34.4264 6.694C34.1651 6.39533 33.7871 6.246 33.2924 6.246C32.7418 6.246 32.3031 6.41867 31.9764 6.764C31.6498 7.1 31.4864 7.604 31.4864 8.276V12H29.3024V4.468H31.3884V5.35C31.6778 5.03267 32.0371 4.79 32.4664 4.622C32.8958 4.44467 33.3671 4.356 33.8804 4.356ZM48.183 8.136L46.111 11.314H44.221L45.677 8.892H41.519V7.38H45.663L44.221 4.986H46.111L48.183 8.136Z" fill="black"/>
</svg>
