<svg width="30" height="37" viewBox="0 0 30 37" fill="none" xmlns="http://www.w3.org/2000/svg">
<path d="M29.2079 1.23979C29.1651 1.14401 29.0953 1.06275 29.0071 1.00591C28.9189 0.949071 28.8161 0.919114 28.7112 0.919686H13.335C13.2426 0.91984 13.1518 0.943162 13.0708 0.987517C12.9898 1.03187 12.9212 1.09584 12.8714 1.17356L1.04945 19.9385C0.992532 20.0202 0.959279 20.1161 0.953352 20.2155C0.947424 20.3149 0.969052 20.414 1.01585 20.5019C1.06265 20.5898 1.13281 20.663 1.21859 20.7136C1.30437 20.7642 1.40245 20.7901 1.50201 20.7885H9.96832L2.49545 35.4141C2.45255 35.5011 2.43238 35.5975 2.43684 35.6944C2.44129 35.7913 2.47022 35.8854 2.52093 35.9681C2.57164 36.0508 2.64246 36.1193 2.7268 36.1672C2.81114 36.215 2.90623 36.2408 3.00321 36.242H6.31467C6.39128 36.2425 6.46715 36.227 6.53747 36.1966C6.60778 36.1662 6.671 36.1215 6.72309 36.0653L26.1172 15.1038C26.1942 15.0253 26.246 14.9256 26.266 14.8175C26.286 14.7094 26.2732 14.5978 26.2293 14.497C26.1854 14.3962 26.1124 14.3108 26.0197 14.2517C25.927 14.1927 25.8187 14.1627 25.7088 14.1655H18.2691L29.1196 1.82482C29.1896 1.74642 29.2352 1.64934 29.2509 1.54545C29.2665 1.44156 29.2516 1.33535 29.2079 1.23979Z" fill="#639B6D"/>
</svg>
